<svg width="16" height="16" viewBox="0 0 16 16" fill="none" xmlns="http://www.w3.org/2000/svg">
<path d="M7.99998 3.33335V3.34002V3.33335ZM7.99998 8.00002V8.00669V8.00002ZM7.99998 12.6667V12.6734V12.6667ZM7.99998 4.00002C7.82317 4.00002 7.6536 3.92978 7.52858 3.80476C7.40355 3.67973 7.33331 3.51016 7.33331 3.33335C7.33331 3.15654 7.40355 2.98697 7.52858 2.86195C7.6536 2.73693 7.82317 2.66669 7.99998 2.66669C8.17679 2.66669 8.34636 2.73693 8.47138 2.86195C8.59641 2.98697 8.66665 3.15654 8.66665 3.33335C8.66665 3.51016 8.59641 3.67973 8.47138 3.80476C8.34636 3.92978 8.17679 4.00002 7.99998 4.00002ZM7.99998 8.66669C7.82317 8.66669 7.6536 8.59645 7.52858 8.47142C7.40355 8.3464 7.33331 8.17683 7.33331 8.00002C7.33331 7.82321 7.40355 7.65364 7.52858 7.52862C7.6536 7.40359 7.82317 7.33335 7.99998 7.33335C8.17679 7.33335 8.34636 7.40359 8.47138 7.52862C8.59641 7.65364 8.66665 7.82321 8.66665 8.00002C8.66665 8.17683 8.59641 8.3464 8.47138 8.47142C8.34636 8.59645 8.17679 8.66669 7.99998 8.66669ZM7.99998 13.3334C7.82317 13.3334 7.6536 13.2631 7.52858 13.1381C7.40355 13.0131 7.33331 12.8435 7.33331 12.6667C7.33331 12.4899 7.40355 12.3203 7.52858 12.1953C7.6536 12.0703 7.82317 12 7.99998 12C8.17679 12 8.34636 12.0703 8.47138 12.1953C8.59641 12.3203 8.66665 12.4899 8.66665 12.6667C8.66665 12.8435 8.59641 13.0131 8.47138 13.1381C8.34636 13.2631 8.17679 13.3334 7.99998 13.3334Z" stroke="white" stroke-width="1.4" stroke-linecap="round" stroke-linejoin="round"/>
</svg>
