<svg width="16" height="20" viewBox="0 0 16 20" fill="none" xmlns="http://www.w3.org/2000/svg">
<path fill-rule="evenodd" clip-rule="evenodd" d="M1.00007 18C0.295813 18 -0.175194 17.2979 0.0598498 16.6586L0.105642 16.5528L1.26106 14.242C1.69845 13.3672 1.94714 12.4115 1.9925 11.4369L2.00007 11.1115V8C2.00007 5.02694 4.16245 2.55893 7.00026 2.08293L7.00007 1C7.00007 0.447715 7.44778 0 8.00007 0C8.55235 0 9.00007 0.447715 9.00007 1L9.00088 2.08309C11.7594 2.54627 13.8794 4.89172 13.9951 7.75347L14.0001 8V11.1115C14.0001 12.0895 14.205 13.0555 14.6003 13.9474L14.7391 14.242L15.8945 16.5528C16.2094 17.1827 15.7921 17.918 15.1152 17.9936L15.0001 18H10.0001C10.0001 19.1046 9.10464 20 8.00007 20C6.8955 20 6.00007 19.1046 6.00007 18H1.00007ZM8.00013 4C5.85793 4 4.10905 5.68397 4.00503 7.80036L4.00013 8V11.1115C4.00013 12.3922 3.72678 13.6569 3.19993 14.8213L3.04997 15.1364L2.61816 16H13.3821L12.9503 15.1364C12.3775 13.9908 12.0564 12.7374 12.0069 11.4603L12.0001 11.1115V8C12.0001 5.79086 10.2093 4 8.00013 4Z" fill="#002029"/>
</svg>
